<svg xmlns="http://www.w3.org/2000/svg" xmlns:xlink="http://www.w3.org/1999/xlink" viewBox="0 0 125 125"><defs><style>.cls-1,.cls-4{fill:none;}.cls-2{clip-path:url(#clip-path);}.cls-3{fill:#1d1d1b;}.cls-4{stroke:#1d1d1b;stroke-miterlimit:10;stroke-width:0.44px;}.cls-5{font-size:10px;font-family:ProximaNovaA-Semibold, Proxima Nova Alt;font-weight:700;letter-spacing:0.1em;}</style><clipPath id="clip-path"><rect class="cls-1" x="44.72" y="26.24" width="27.72" height="42.76"/></clipPath></defs><title>Icons</title><g id="Layer_1" data-name="Layer 1"><g class="cls-2"><path class="cls-3" d="M58.62,40.72c0-.13.05-.2,0-.24-1-1.32-1.94-2.64-2.95-3.94a.83.83,0,0,0-.59-.24c-1.57,0-3.14.1-4.77.17l1.07,4.25ZM45.47,36.16c.34-.18.48-.24.6-.33,1.07-.71,2.13-1.43,3.2-2.13s2.33-1.48,3.48-2.24c1.74-1.15,3.46-2.32,5.19-3.48l1.13-.75L59,27c-1-.06-2-.18-3-.17a39.54,39.54,0,0,0-4.26.24,4.73,4.73,0,0,0-2.89,1.47,13.43,13.43,0,0,0-3,5.5,15.14,15.14,0,0,0-.31,2.07m10.76.09-.11.21c1,1.3,2,2.59,3,3.89a.84.84,0,0,0,.77.29c2.66,0,5.32-.05,8-.09.85,0,1.7-.09,2.51-.14l.4-4.6-14.58.43m3.46-9-7.13,4.66c.24.34.39.59.58.82.73.89,1.49,1.77,2.19,2.68a1.22,1.22,0,0,0,1.15.55c.86-.05,1.72-.07,2.58-.09,2.32-.07,4.65-.12,7-.21,1.66-.06,3.31-.17,5.1-.26.1,1.64-.43,3.27-.37,4.93l.81.16-.83.34-1,7c-.31,2.17-.63,4.34-.93,6.52-.13,1-.23,2-.3,3-.16,2.31-.26,4.62-.44,6.92-.1,1.23-.3,2.45-.46,3.67,0,.1-.13.18-.31.42-.05-.36-.14-.56-.1-.72A27.86,27.86,0,0,0,68,61.13c.1-1.92.2-3.84.42-5.75.38-3.22.85-6.44,1.3-9.65.08-.59.22-1.18.35-1.77a12,12,0,0,0,.25-3.2l-18.78.38c0,.37.08.66.13.94.35,2.08.73,4.15,1.06,6.23.26,1.66.47,3.33.7,5a6.84,6.84,0,0,1,.1.89,29.29,29.29,0,0,0,.9,6.5c.43,1.82.76,3.66,1.15,5.48.11.5.26,1,.41,1.54,1.82.17,3.61.06,5.39.11s3.45-.42,5.18-.18c0,.08,0,.16,0,.24H65.8c-.56,0-1.13,0-1.69,0-1.59.05-3.18.15-4.77.18-1.12,0-2.25,0-3.37,0a2.69,2.69,0,0,1-.4-.07c-.42-2.07-.84-4.12-1.27-6.17-.19-.88-.46-1.75-.59-2.64-.22-1.48-.36-3-.55-4.46q-.44-3.4-.9-6.79c-.16-1.22-.29-2.45-.52-3.66s-.55-2.15-.8-3.23c-.09-.4-.06-.83-.15-1.24-.29-1.2-.62-2.39-1-3.69.88,0,1.75,0,2.61,0S54.21,36,55.26,36a27.44,27.44,0,0,0-3.12-3.76L45.09,37c-.06-.18-.14-.29-.12-.38a33.47,33.47,0,0,1,.78-3.42,21.39,21.39,0,0,1,1.43-3.35A4.8,4.8,0,0,1,48.64,28a7.74,7.74,0,0,1,3.53-1.34,41.33,41.33,0,0,1,6.16-.16c.59,0,1.13.09,1.35.72"/><path class="cls-4" d="M58.62,40.72c0-.13.05-.2,0-.24-1-1.32-1.94-2.64-2.95-3.94a.83.83,0,0,0-.59-.24c-1.57,0-3.14.1-4.77.17l1.07,4.25ZM45.47,36.16c.34-.18.48-.24.6-.33,1.07-.71,2.13-1.43,3.2-2.13s2.33-1.48,3.48-2.24c1.74-1.15,3.46-2.32,5.19-3.48l1.13-.75L59,27c-1-.06-2-.18-3-.17a39.54,39.54,0,0,0-4.26.24,4.73,4.73,0,0,0-2.89,1.47,13.43,13.43,0,0,0-3,5.5A15.14,15.14,0,0,0,45.47,36.16Zm10.76.09-.11.21c1,1.3,2,2.59,3,3.89a.84.84,0,0,0,.77.29c2.66,0,5.32-.05,8-.09.85,0,1.7-.09,2.51-.14l.4-4.6Zm3.46-9-7.13,4.66c.24.34.39.59.58.82.73.89,1.49,1.77,2.19,2.68a1.22,1.22,0,0,0,1.15.55c.86-.05,1.72-.07,2.58-.09,2.32-.07,4.65-.12,7-.21,1.66-.06,3.31-.17,5.1-.26.1,1.64-.43,3.27-.37,4.93l.81.16-.83.34-1,7c-.31,2.17-.63,4.34-.93,6.52-.13,1-.23,2-.3,3-.16,2.31-.26,4.62-.44,6.92-.1,1.23-.3,2.45-.46,3.67,0,.1-.13.18-.31.42-.05-.36-.14-.56-.1-.72A27.86,27.86,0,0,0,68,61.13c.1-1.92.2-3.84.42-5.75.38-3.22.85-6.44,1.3-9.65.08-.59.22-1.18.35-1.77a12,12,0,0,0,.25-3.2l-18.78.38c0,.37.08.66.13.94.35,2.08.73,4.15,1.06,6.23.26,1.66.47,3.33.7,5a6.84,6.84,0,0,1,.1.89,29.29,29.29,0,0,0,.9,6.5c.43,1.82.76,3.66,1.15,5.48.11.5.26,1,.41,1.54,1.82.17,3.61.06,5.39.11s3.45-.42,5.18-.18c0,.08,0,.16,0,.24H65.8c-.56,0-1.13,0-1.69,0-1.59.05-3.18.15-4.77.18-1.12,0-2.25,0-3.37,0a2.69,2.69,0,0,1-.4-.07c-.42-2.07-.84-4.12-1.27-6.17-.19-.88-.46-1.75-.59-2.64-.22-1.48-.36-3-.55-4.46q-.44-3.4-.9-6.79c-.16-1.22-.29-2.45-.52-3.66s-.55-2.15-.8-3.23c-.09-.4-.06-.83-.15-1.24-.29-1.2-.62-2.39-1-3.69.88,0,1.75,0,2.61,0S54.21,36,55.26,36a27.44,27.44,0,0,0-3.12-3.76L45.09,37c-.06-.18-.14-.29-.12-.38a33.47,33.47,0,0,1,.78-3.42,21.39,21.39,0,0,1,1.43-3.35A4.8,4.8,0,0,1,48.64,28a7.74,7.74,0,0,1,3.53-1.34,41.33,41.33,0,0,1,6.16-.16C58.92,26.58,59.46,26.64,59.68,27.27Z"/></g><text class="cls-5" transform="translate(52.25 97.95)">BAR</text></g></svg>