<svg xmlns="http://www.w3.org/2000/svg" xmlns:xlink="http://www.w3.org/1999/xlink" viewBox="0 0 125 125"><defs><style>.cls-1,.cls-3,.cls-4{fill:none;}.cls-2{clip-path:url(#clip-path);}.cls-3,.cls-4{stroke:#fff;stroke-miterlimit:10;}.cls-4{stroke-width:0.44px;}.cls-5{font-size:10px;fill:#fff;font-family:ProximaNovaA-Semibold, Proxima Nova Alt;font-weight:700;letter-spacing:0.1em;}.cls-6{letter-spacing:0.06em;}.cls-7{letter-spacing:0.08em;}</style><clipPath id="clip-path"><rect class="cls-1" x="48.58" y="23.41" width="39.92" height="52.59"/></clipPath></defs><title>Icons</title><g id="Layer_1" data-name="Layer 1"><g class="cls-2"><path class="cls-3" d="M75.75,27.84c1,0,1.82-.54,1.79-1.28A2.31,2.31,0,0,0,76,24.84c-.93-.07-2,.68-2,1.42a1.87,1.87,0,0,0,1.79,1.58m-22.27,8c-1.36,0-2,.39-2.2,1.32a3.27,3.27,0,0,0,.44,2.66,1.74,1.74,0,0,0,.83.67,2.61,2.61,0,0,0,2.58-.57,2,2,0,0,0,.41-2.31A5.9,5.9,0,0,0,55,36.46c-.35-.49-.74-1-1.5-.66m33.87-4c-.65-.76-1.17-1.34-1.66-2a7.38,7.38,0,0,0-3.87-2.28,5.86,5.86,0,0,0-4.54.63A4.23,4.23,0,0,0,75,31.86c-.25,2.63.88,4.73,2.3,6.86,3.56-2,6.61-4.61,10-6.92M65.22,74.72a9.93,9.93,0,0,0-4.57-6.12c-2.37-1.29-4.89-1.54-7.21,0A8.64,8.64,0,0,0,49.59,75c2.69.5,14.15.28,15.63-.33m-16.33,1a10.84,10.84,0,0,1,3.91-7.29A6.1,6.1,0,0,1,56.28,67a23.37,23.37,0,0,0,0-2.93c-.64-5-1.36-10-2-15-.21-1.6-.29-3.22-.45-4.83-.09-1-.22-1.91-.33-2.82-2.14-.63-2.87-1.62-2.87-3.69a2.3,2.3,0,0,1,1.3-2.11c.28-.16.58-.29.87-.44a1.7,1.7,0,0,1,2.34.45c.14.18.31.33.58.61,1.36-.76,2.76-1.46,4.08-2.28,2.48-1.53,4.93-3.11,7.37-4.69,1.82-1.18,3.63-2.39,5.43-3.6.75-.51,1.47-1.06,2.22-1.58s.93-.53,1.78.22a4.12,4.12,0,0,1,1.73,2.8c4.51-1.08,7.4,1.25,9.84,4.8L77.08,39.7c-2.25-3.54-3.93-7-1.54-11.1a2.83,2.83,0,0,1-2.31-2.69L56.07,36.77c.32,2.84,0,3.48-2,4.34.21,4.32.8,8.61,1.4,12.91S56.64,62.62,57.21,67c2.68.39,5,1.33,6.54,3.59,1,1.45,2.27,2.84,1.89,5-5.59.25-11.12.19-16.76.19"/><path class="cls-4" d="M75.75,27.84c1,0,1.82-.54,1.79-1.28A2.31,2.31,0,0,0,76,24.84c-.93-.07-2,.68-2,1.42A1.87,1.87,0,0,0,75.75,27.84Zm-22.27,8c-1.36,0-2,.39-2.2,1.32a3.27,3.27,0,0,0,.44,2.66,1.74,1.74,0,0,0,.83.67,2.61,2.61,0,0,0,2.58-.57,2,2,0,0,0,.41-2.31A5.9,5.9,0,0,0,55,36.46C54.63,36,54.23,35.47,53.48,35.8Zm33.87-4c-.65-.76-1.17-1.34-1.66-2a7.38,7.38,0,0,0-3.87-2.28,5.86,5.86,0,0,0-4.54.63A4.23,4.23,0,0,0,75,31.86c-.25,2.63.88,4.73,2.3,6.86C80.87,36.73,83.91,34.11,87.35,31.8ZM65.22,74.72a9.93,9.93,0,0,0-4.57-6.12c-2.37-1.29-4.89-1.54-7.21,0A8.64,8.64,0,0,0,49.59,75C52.29,75.55,63.74,75.33,65.22,74.72Zm-16.33,1a10.84,10.84,0,0,1,3.91-7.29A6.1,6.1,0,0,1,56.28,67a23.37,23.37,0,0,0,0-2.93c-.64-5-1.36-10-2-15-.21-1.6-.29-3.22-.45-4.83-.09-1-.22-1.91-.33-2.82-2.14-.63-2.87-1.62-2.87-3.69a2.3,2.3,0,0,1,1.3-2.11c.28-.16.58-.29.87-.44a1.7,1.7,0,0,1,2.34.45c.14.18.31.33.58.61,1.36-.76,2.76-1.46,4.08-2.28,2.48-1.53,4.93-3.11,7.37-4.69,1.82-1.18,3.63-2.39,5.43-3.6.75-.51,1.47-1.06,2.22-1.58s.93-.53,1.78.22a4.12,4.12,0,0,1,1.73,2.8c4.51-1.08,7.4,1.25,9.84,4.8L77.08,39.7c-2.25-3.54-3.93-7-1.54-11.1a2.83,2.83,0,0,1-2.31-2.69L56.07,36.77c.32,2.84,0,3.48-2,4.34.21,4.32.8,8.61,1.4,12.91S56.64,62.62,57.21,67c2.68.39,5,1.33,6.54,3.59,1,1.45,2.27,2.84,1.89,5C60.06,75.79,54.53,75.73,48.89,75.72Z"/></g><text class="cls-5" transform="translate(26.97 97.95)">CO<tspan class="cls-6" x="16.47" y="0">-</tspan><tspan class="cls-7" x="20.12" y="0">W</tspan><tspan x="29.95" y="0">ORKING</tspan></text></g></svg>