<svg xmlns="http://www.w3.org/2000/svg" xmlns:xlink="http://www.w3.org/1999/xlink" viewBox="0 0 125 125"><defs><style>.cls-1,.cls-4{fill:none;}.cls-2{clip-path:url(#clip-path);}.cls-3{fill:#1d1d1b;}.cls-4{stroke:#1d1d1b;stroke-miterlimit:10;stroke-width:0.44px;}.cls-5{font-size:10px;font-family:ProximaNovaA-Semibold, Proxima Nova Alt;font-weight:700;letter-spacing:0.1em;}</style><clipPath id="clip-path"><rect class="cls-1" x="42.04" y="35.36" width="44.34" height="30.64"/></clipPath></defs><title>Icons</title><g id="Layer_1" data-name="Layer 1"><g class="cls-2"><path class="cls-3" d="M42.89,37.73c-.05.84-.15,1.62-.14,2.39a44.81,44.81,0,0,0,.5,5.1A62.05,62.05,0,0,0,45,53.77c.35,1.25.67,2.51,1,3.77a10.06,10.06,0,0,0,.24,1.21c.49,1.24,1.07,2.46,1.55,3.7a4.09,4.09,0,0,0,3.39,2.46,24,24,0,0,0,3.68.37,58,58,0,0,0,12.34-.89,2.44,2.44,0,0,0,1.69-1.18,62.94,62.94,0,0,1,3.89-5.12,36.69,36.69,0,0,1,8.5-6.74,9.39,9.39,0,0,0,4.18-9.55A5.49,5.49,0,0,0,84,38.95c-1.58-1.77-3.71-1.9-5.82-1.75a19.89,19.89,0,0,0-4,1c-.59.17-.75.14-1-.39a10.73,10.73,0,0,1-.42-1.05A1,1,0,0,0,71.65,36c-2,.14-4,.23-6,.35l-11.2.67c-2.4.14-4.8.25-7.19.39-1.37.08-2.74.18-4.35.28m30.91.2c1.46-.36,2.84-.74,4.25-1a8.06,8.06,0,0,1,4.66.56,5,5,0,0,1,2.36,2.14c2.06,3.4.61,8.72-2.41,11.25a4.08,4.08,0,0,1-.34.24c-1.76,1.2-3.56,2.35-5.28,3.61a27.88,27.88,0,0,0-5.55,5.49c-1,1.25-1.86,2.58-2.73,3.91-.31.46-.52.73-1.22.63a7.38,7.38,0,0,0-2.3.24,46.82,46.82,0,0,1-8.33.67,41.25,41.25,0,0,1-6-.48,10,10,0,0,1-2.54-1,1.17,1.17,0,0,1-.44-.55,21.72,21.72,0,0,1-2.55-7,20.52,20.52,0,0,0-.85-3.16,58.94,58.94,0,0,1-1.7-8.66,27,27,0,0,1-.44-4.28c0-1,.09-2,.14-3.13l3.25-.16c3.1-.17,6.19-.36,9.28-.53,2.75-.15,5.51-.26,8.26-.42s5.78-.36,8.68-.55c.75,0,.8,0,1.07.66.1.26.18.52.3.76s.3.53.43.77"/><path class="cls-4" d="M42.89,37.73c-.05.84-.15,1.62-.14,2.39a44.81,44.81,0,0,0,.5,5.1A62.05,62.05,0,0,0,45,53.77c.35,1.25.67,2.51,1,3.77a10.06,10.06,0,0,0,.24,1.21c.49,1.24,1.07,2.46,1.55,3.7a4.09,4.09,0,0,0,3.39,2.46,24,24,0,0,0,3.68.37,58,58,0,0,0,12.34-.89,2.44,2.44,0,0,0,1.69-1.18,62.94,62.94,0,0,1,3.89-5.12,36.69,36.69,0,0,1,8.5-6.74,9.39,9.39,0,0,0,4.18-9.55A5.49,5.49,0,0,0,84,38.95c-1.58-1.77-3.71-1.9-5.82-1.75a19.89,19.89,0,0,0-4,1c-.59.17-.75.14-1-.39a10.73,10.73,0,0,1-.42-1.05A1,1,0,0,0,71.65,36c-2,.14-4,.23-6,.35l-11.2.67c-2.4.14-4.8.25-7.19.39C45.87,37.52,44.5,37.62,42.89,37.73Zm30.91.2c1.46-.36,2.84-.74,4.25-1a8.06,8.06,0,0,1,4.66.56,5,5,0,0,1,2.36,2.14c2.06,3.4.61,8.72-2.41,11.25a4.08,4.08,0,0,1-.34.24c-1.76,1.2-3.56,2.35-5.28,3.61a27.88,27.88,0,0,0-5.55,5.49c-1,1.25-1.86,2.58-2.73,3.91-.31.46-.52.73-1.22.63a7.38,7.38,0,0,0-2.3.24,46.82,46.82,0,0,1-8.33.67,41.25,41.25,0,0,1-6-.48,10,10,0,0,1-2.54-1,1.17,1.17,0,0,1-.44-.55,21.72,21.72,0,0,1-2.55-7,20.52,20.52,0,0,0-.85-3.16,58.94,58.94,0,0,1-1.7-8.66,27,27,0,0,1-.44-4.28c0-1,.09-2,.14-3.13l3.25-.16c3.1-.17,6.19-.36,9.28-.53,2.75-.15,5.51-.26,8.26-.42s5.78-.36,8.68-.55c.75,0,.8,0,1.07.66.1.26.18.52.3.76S73.67,37.69,73.8,37.92Z"/><path class="cls-3" d="M72.59,54.84c2-1.24,3.86-2.31,5.63-3.49a26.13,26.13,0,0,0,3.24-2.55,7.16,7.16,0,0,0,1.94-3,6,6,0,0,0-.32-4.37,4.78,4.78,0,0,0-2.77-2.34,2.56,2.56,0,0,0-2.52.38,10.75,10.75,0,0,0-4.43,7c-.32,1.87-.48,3.77-.67,5.65-.08.84-.07,1.68-.1,2.67m-.16.84a7.41,7.41,0,0,1-.18-2.91c.2-2.2.44-4.39.74-6.57a9.5,9.5,0,0,1,1.44-3.58,11.15,11.15,0,0,1,3-3.37A3,3,0,0,1,81.17,39a8.27,8.27,0,0,1,2,1.74,3.23,3.23,0,0,1,.61,1.47A16.1,16.1,0,0,1,84,44.43a4.7,4.7,0,0,1-.8,2.7,13.52,13.52,0,0,1-4.54,4.43c-1.51,1-3.08,1.84-4.6,2.8a19.45,19.45,0,0,0-1.66,1.32"/><path class="cls-4" d="M72.59,54.84c2-1.24,3.86-2.31,5.63-3.49a26.13,26.13,0,0,0,3.24-2.55,7.16,7.16,0,0,0,1.94-3,6,6,0,0,0-.32-4.37,4.78,4.78,0,0,0-2.77-2.34,2.56,2.56,0,0,0-2.52.38,10.75,10.75,0,0,0-4.43,7c-.32,1.87-.48,3.77-.67,5.65C72.61,53,72.62,53.85,72.59,54.84Zm-.16.84a7.41,7.41,0,0,1-.18-2.91c.2-2.2.44-4.39.74-6.57a9.5,9.5,0,0,1,1.44-3.58,11.15,11.15,0,0,1,3-3.37A3,3,0,0,1,81.17,39a8.27,8.27,0,0,1,2,1.74,3.23,3.23,0,0,1,.61,1.47A16.1,16.1,0,0,1,84,44.43a4.7,4.7,0,0,1-.8,2.7,13.52,13.52,0,0,1-4.54,4.43c-1.51,1-3.08,1.84-4.6,2.8A19.45,19.45,0,0,0,72.43,55.68Z"/></g><text class="cls-5" transform="translate(41.87 97.08)">COFFEE</text></g></svg>