<svg xmlns="http://www.w3.org/2000/svg" xmlns:xlink="http://www.w3.org/1999/xlink" viewBox="0 0 125 125"><defs><style>.cls-1,.cls-4{fill:none;}.cls-2{clip-path:url(#clip-path);}.cls-3{fill:#1d1d1b;}.cls-4{stroke:#1d1d1b;stroke-miterlimit:10;stroke-width:0.44px;}.cls-5{font-size:10px;font-family:ProximaNovaA-Semibold, Proxima Nova Alt;font-weight:700;letter-spacing:0.1em;}</style><clipPath id="clip-path"><rect class="cls-1" x="40.17" y="25.12" width="45.45" height="42.88"/></clipPath></defs><title>Icons</title><g id="Layer_1" data-name="Layer 1"><g class="cls-2"><path class="cls-3" d="M41.92,66.83c1.38.11,2.52.24,3.67.29a14.72,14.72,0,0,0,7.51-1.39A2.14,2.14,0,0,1,55,65.59a25.68,25.68,0,0,0,8.5,1.28,19.12,19.12,0,0,0,6.85-1.09,14.76,14.76,0,0,0,4.78-2.19,59.51,59.51,0,0,0,5.14-4.66,16.53,16.53,0,0,0,4.07-9.26,40.4,40.4,0,0,0,.17-6.46,9.94,9.94,0,0,0-1.75-4.92c-.22-.37-.48-.63-.21-1.2.16-.34-.24-1-.51-1.47a18.72,18.72,0,0,0-1.54-2.23,15.57,15.57,0,0,0-6.3-5,32.51,32.51,0,0,0-8.67-2.56,7.9,7.9,0,0,0-1.81-.08c-3,.41-6.09.88-9.14,1.32a1.48,1.48,0,0,1-.38-.07,13.83,13.83,0,0,1,5-1.18,58.4,58.4,0,0,1,6.49-.37,17.74,17.74,0,0,1,4.58.93c1.78.55,3.5,1.31,5.23,2a3.37,3.37,0,0,1,.8.43c1.85,1.4,3.78,2.71,5,4.72.77,1.23,1.48,2.49,2.27,3.71.31.49.63.9.31,1.51-.07.13,0,.38.14.55,1.52,2.86,1.35,6,1.14,9a21.13,21.13,0,0,1-2.51,8.33,18.48,18.48,0,0,1-4.1,5A21.41,21.41,0,0,1,69,66.82a23.37,23.37,0,0,1-8.58.4c-1.7-.22-3.37-.6-5-1a4,4,0,0,0-2.51.19c-3.67,1.56-7.48,1.47-11.32.81-.08,0-.14-.13-.35-.32.35-.64.73-1.32,1.1-2,.74-1.37,1.48-2.75,2.2-4.13a2.35,2.35,0,0,0-.12-2.42A28.93,28.93,0,0,1,40.53,47a17,17,0,0,1,1.94-9.17,26.76,26.76,0,0,1,7.93-9.17,8.58,8.58,0,0,1,3.14-1.56c-.06.23-.06.35-.11.37a22.53,22.53,0,0,0-8.14,6.86c-2.74,3.56-4.51,7.53-4.18,12.12a22.5,22.5,0,0,0,2.26,8.39c.6,1.22,1.18,2.44,1.83,3.63.55,1,0,1.86-.37,2.69C44,63,43,64.75,41.92,66.83"/><path class="cls-4" d="M41.92,66.83c1.38.11,2.52.24,3.67.29a14.72,14.72,0,0,0,7.51-1.39A2.14,2.14,0,0,1,55,65.59a25.68,25.68,0,0,0,8.5,1.28,19.12,19.12,0,0,0,6.85-1.09,14.76,14.76,0,0,0,4.78-2.19,59.51,59.51,0,0,0,5.14-4.66,16.53,16.53,0,0,0,4.07-9.26,40.4,40.4,0,0,0,.17-6.46,9.94,9.94,0,0,0-1.75-4.92c-.22-.37-.48-.63-.21-1.2.16-.34-.24-1-.51-1.47a18.72,18.72,0,0,0-1.54-2.23,15.57,15.57,0,0,0-6.3-5,32.51,32.51,0,0,0-8.67-2.56,7.9,7.9,0,0,0-1.81-.08c-3,.41-6.09.88-9.14,1.32a1.48,1.48,0,0,1-.38-.07,13.83,13.83,0,0,1,5-1.18,58.4,58.4,0,0,1,6.49-.37,17.74,17.74,0,0,1,4.58.93c1.78.55,3.5,1.31,5.23,2a3.37,3.37,0,0,1,.8.43c1.85,1.4,3.78,2.71,5,4.72.77,1.23,1.48,2.49,2.27,3.71.31.49.63.9.31,1.51-.07.13,0,.38.14.55,1.52,2.86,1.35,6,1.14,9a21.13,21.13,0,0,1-2.51,8.33,18.48,18.48,0,0,1-4.1,5A21.41,21.41,0,0,1,69,66.82a23.37,23.37,0,0,1-8.58.4c-1.7-.22-3.37-.6-5-1a4,4,0,0,0-2.51.19c-3.67,1.56-7.48,1.47-11.32.81-.08,0-.14-.13-.35-.32.35-.64.73-1.32,1.1-2,.74-1.37,1.48-2.75,2.2-4.13a2.35,2.35,0,0,0-.12-2.42A28.93,28.93,0,0,1,40.53,47a17,17,0,0,1,1.94-9.17,26.76,26.76,0,0,1,7.93-9.17,8.58,8.58,0,0,1,3.14-1.56c-.06.23-.06.35-.11.37a22.53,22.53,0,0,0-8.14,6.86c-2.74,3.56-4.51,7.53-4.18,12.12a22.5,22.5,0,0,0,2.26,8.39c.6,1.22,1.18,2.44,1.83,3.63.55,1,0,1.86-.37,2.69C44,63,43,64.75,41.92,66.83Z"/><path class="cls-3" d="M62.78,49.24a3.39,3.39,0,0,0,.46,0,3.26,3.26,0,0,0,2.71-3,2.67,2.67,0,0,0-1.82-2.93,3.27,3.27,0,0,0-2.95.67,2.88,2.88,0,0,0-1.43,3.55c.31,1,1.49,1.71,3,1.7m3.84-3.3c.42,2.46-3,4.69-5.67,3.68a2.91,2.91,0,0,1-2-3,4.2,4.2,0,0,1,6-3.55,2.8,2.8,0,0,1,1.63,2.89"/><path class="cls-4" d="M62.78,49.24a3.39,3.39,0,0,0,.46,0,3.26,3.26,0,0,0,2.71-3,2.67,2.67,0,0,0-1.82-2.93,3.27,3.27,0,0,0-2.95.67,2.88,2.88,0,0,0-1.43,3.55C60.05,48.56,61.23,49.26,62.78,49.24Zm3.84-3.3c.42,2.46-3,4.69-5.67,3.68a2.91,2.91,0,0,1-2-3,4.2,4.2,0,0,1,6-3.55A2.8,2.8,0,0,1,66.62,45.94Z"/><path class="cls-3" d="M72.13,43.25a3.16,3.16,0,0,0-3.19,3.24,2.79,2.79,0,0,0,2.74,2.45A3.33,3.33,0,0,0,74.93,46a2.64,2.64,0,0,0-2.8-2.79m-.39,6.28a3.42,3.42,0,0,1-3.26-2A3.18,3.18,0,0,1,69.29,44a7.94,7.94,0,0,1,2.15-1.29,3,3,0,0,1,3.7,1.42,3.41,3.41,0,0,1-.48,4.1,5,5,0,0,1-2.91,1.29"/><path class="cls-4" d="M72.13,43.25a3.16,3.16,0,0,0-3.19,3.24,2.79,2.79,0,0,0,2.74,2.45A3.33,3.33,0,0,0,74.93,46,2.64,2.64,0,0,0,72.13,43.25Zm-.39,6.28a3.42,3.42,0,0,1-3.26-2A3.18,3.18,0,0,1,69.29,44a7.94,7.94,0,0,1,2.15-1.29,3,3,0,0,1,3.7,1.42,3.41,3.41,0,0,1-.48,4.1A5,5,0,0,1,71.74,49.53Z"/><path class="cls-3" d="M56.32,46.75c0-1.94-.6-2.58-2.69-3a2.64,2.64,0,0,0-3.11,1.82c-.56,1.24-.32,2,1,2.88.45.3,1,.44,1.48.7a2.32,2.32,0,0,0,3.36-2.39m.64.08a2.82,2.82,0,0,1-2.06,3,2.13,2.13,0,0,1-1,.16,6.76,6.76,0,0,1-3.4-1.45,2.15,2.15,0,0,1-.64-2.91c.77-1.94,3.27-3.11,4.87-2.4A3.5,3.5,0,0,1,57,46.84"/><path class="cls-4" d="M56.32,46.75c0-1.94-.6-2.58-2.69-3a2.64,2.64,0,0,0-3.11,1.82c-.56,1.24-.32,2,1,2.88.45.3,1,.44,1.48.7A2.32,2.32,0,0,0,56.32,46.75Zm.64.08a2.82,2.82,0,0,1-2.06,3,2.13,2.13,0,0,1-1,.16,6.76,6.76,0,0,1-3.4-1.45,2.15,2.15,0,0,1-.64-2.91c.77-1.94,3.27-3.11,4.87-2.4A3.5,3.5,0,0,1,57,46.84Z"/></g><text class="cls-5" transform="translate(28.85 97.08)">COMMUNITY</text></g></svg>