<svg xmlns="http://www.w3.org/2000/svg" xmlns:xlink="http://www.w3.org/1999/xlink" viewBox="0 0 125 125"><defs><style>.cls-1,.cls-3,.cls-4{fill:none;}.cls-2{clip-path:url(#clip-path);}.cls-3,.cls-4{stroke:#fff;stroke-miterlimit:10;}.cls-4{stroke-width:0.44px;}.cls-5{font-size:10px;fill:#fff;font-family:ProximaNovaA-Semibold, Proxima Nova Alt;font-weight:700;letter-spacing:0.1em;}.cls-6{letter-spacing:0.03em;}.cls-7{letter-spacing:0.07em;}.cls-8{letter-spacing:0.1em;}</style><clipPath id="clip-path"><rect class="cls-1" x="48.14" y="32.03" width="28.19" height="37.97"/></clipPath></defs><title>Icons</title><g id="Layer_1" data-name="Layer 1"><g class="cls-2"><path class="cls-3" d="M60.49,33c.2,8,.4,15.78.6,23.77-.28-.07-.62,0-.8-.21a2.48,2.48,0,0,0-2.16-.43,5.65,5.65,0,0,0-1.12.23C55,57,53,57.54,51.3,59a6,6,0,0,0-2,7.22,3.78,3.78,0,0,0,2.87,2.64A14.62,14.62,0,0,0,56,69.1a8.58,8.58,0,0,0,6.5-3.91,6.11,6.11,0,0,0,1.2-3.41c0-.88,0-1.75.05-2.62.06-1.39.26-2.79.19-4.17-.2-3.81-.51-7.62-.77-11.43a9.15,9.15,0,0,1,0-3.07c.78.13,1.51.31,2.25.37a12.26,12.26,0,0,1,4.93,1.33,4.13,4.13,0,0,1,2.31,4.89,9.38,9.38,0,0,1-.55,1.57c-.57,1.17-1.19,2.31-1.78,3.47-.33.65-.64,1.31-1,2,.32.07.51,0,.62-.08a29.44,29.44,0,0,0,2.8-2.8c1.74-2.21,3.13-4.59,2.61-7.7a4.75,4.75,0,0,0-1.36-2.8,25.39,25.39,0,0,0-6.48-4.14c-1.79-.92-3.6-1.7-4.63-3.7L60.49,33M68,55.75c1.11-2.17,2.23-4.34,3.33-6.52A11.59,11.59,0,0,0,72,47.36c.66-2.2.08-3.47-1.77-4.61a10.08,10.08,0,0,0-4.89-1.42c-.52,0-1-.14-1.69-.24a6.53,6.53,0,0,0-.09,1.05c.27,3.49.62,7,.82,10.48.1,1.66-.07,3.33-.1,5,0,.63,0,1.27,0,1.9,0,1-.06,2-.11,3a4.58,4.58,0,0,1-1.23,2.88,24.91,24.91,0,0,1-2.12,2.33,8.8,8.8,0,0,1-5.71,2,13.67,13.67,0,0,1-2.93-.27c-2-.4-3.52-2.56-3.73-4.61a6.66,6.66,0,0,1,2.06-5.69,8.82,8.82,0,0,1,3.57-2.26c1-.3,1.94-.68,2.92-1a5.09,5.09,0,0,1,3.52,0c-.17-7.88-.34-15.64-.51-23.33,1-.12,1.92-.21,2.84-.34.43-.06.63.21.8.53a6.54,6.54,0,0,0,3.45,2.93,37.7,37.7,0,0,1,4.43,2.42,29.59,29.59,0,0,1,3.14,2.34A4.23,4.23,0,0,1,75.9,43c.66,2.88-.52,5.21-1.93,7.48a18.51,18.51,0,0,1-3.59,3.8c-.37.34-.75.68-1.14,1s-.71.5-1.07.75L68,55.75"/><path class="cls-4" d="M60.49,33c.2,8,.4,15.78.6,23.77-.28-.07-.62,0-.8-.21a2.48,2.48,0,0,0-2.16-.43,5.65,5.65,0,0,0-1.12.23C55,57,53,57.54,51.3,59a6,6,0,0,0-2,7.22,3.78,3.78,0,0,0,2.87,2.64A14.62,14.62,0,0,0,56,69.1a8.58,8.58,0,0,0,6.5-3.91,6.11,6.11,0,0,0,1.2-3.41c0-.88,0-1.75.05-2.62.06-1.39.26-2.79.19-4.17-.2-3.81-.51-7.62-.77-11.43a9.15,9.15,0,0,1,0-3.07c.78.13,1.51.31,2.25.37a12.26,12.26,0,0,1,4.93,1.33,4.13,4.13,0,0,1,2.31,4.89,9.38,9.38,0,0,1-.55,1.57c-.57,1.17-1.19,2.31-1.78,3.47-.33.65-.64,1.31-1,2,.32.07.51,0,.62-.08a29.44,29.44,0,0,0,2.8-2.8c1.74-2.21,3.13-4.59,2.61-7.7a4.75,4.75,0,0,0-1.36-2.8,25.39,25.39,0,0,0-6.48-4.14c-1.79-.92-3.6-1.7-4.63-3.7ZM68,55.75c1.11-2.17,2.23-4.34,3.33-6.52A11.59,11.59,0,0,0,72,47.36c.66-2.2.08-3.47-1.77-4.61a10.08,10.08,0,0,0-4.89-1.42c-.52,0-1-.14-1.69-.24a6.53,6.53,0,0,0-.09,1.05c.27,3.49.62,7,.82,10.48.1,1.66-.07,3.33-.1,5,0,.63,0,1.27,0,1.9,0,1-.06,2-.11,3a4.58,4.58,0,0,1-1.23,2.88,24.91,24.91,0,0,1-2.12,2.33,8.8,8.8,0,0,1-5.71,2,13.67,13.67,0,0,1-2.93-.27c-2-.4-3.52-2.56-3.73-4.61a6.66,6.66,0,0,1,2.06-5.69,8.82,8.82,0,0,1,3.57-2.26c1-.3,1.94-.68,2.92-1a5.09,5.09,0,0,1,3.52,0c-.17-7.88-.34-15.64-.51-23.33,1-.12,1.92-.21,2.84-.34.43-.06.63.21.8.53a6.54,6.54,0,0,0,3.45,2.93,37.7,37.7,0,0,1,4.43,2.42,29.59,29.59,0,0,1,3.14,2.34A4.23,4.23,0,0,1,75.9,43c.66,2.88-.52,5.21-1.93,7.48a18.51,18.51,0,0,1-3.59,3.8c-.37.34-.75.68-1.14,1s-.71.5-1.07.75Z"/></g><text class="cls-5" transform="translate(22.5 98.08)">EVENTS S<tspan class="cls-6" x="53.7" y="0">P</tspan><tspan class="cls-7" x="60.04" y="0">A</tspan><tspan class="cls-8" x="67.42" y="0">CE</tspan></text></g></svg>