<?xml version="1.0" encoding="UTF-8" standalone="no"?>
<svg width="40px" height="12px" viewBox="0 0 40 12" version="1.1" xmlns="http://www.w3.org/2000/svg" xmlns:xlink="http://www.w3.org/1999/xlink" xmlns:sketch="http://www.bohemiancoding.com/sketch/ns">
    <!-- Generator: Sketch 3.4.4 (17249) - http://www.bohemiancoding.com/sketch -->
    <title>Shape + Shape + Shape</title>
    <desc>Created with Sketch.</desc>
    <defs></defs>
    <g id="Home" stroke="none" stroke-width="1" fill="none" fill-rule="evenodd" sketch:type="MSPage">
        <g id="Homepage-Copy-2" sketch:type="MSArtboardGroup" transform="translate(-700.000000, -2957.000000)" fill="#C9C9CA">
            <g id="News" sketch:type="MSLayerGroup" transform="translate(0.000000, 2770.000000)">
                <g id="Divider" transform="translate(700.000000, 187.000000)" sketch:type="MSShapeGroup">
                    <g id="Shape-+-Shape-+-Shape">
                        <path d="M5.5,0.866025404 L5.5,0.866025404 L6.5,0.866025404 L1.30384758,3.8660254 L1.80384758,3 L1.80384758,9 L1.30384758,8.1339746 L6.5,11.1339746 L5.5,11.1339746 L10.6961524,8.1339746 L10.1961524,9 L10.1961524,3 L10.6961524,3.8660254 L5.5,0.866025404 Z M6,0 L11.1961524,3 L11.1961524,9 L6,12 L0.803847577,9 L0.803847577,3 L6,0 L6,0 Z" id="Shape"></path>
                        <path d="M19.5,0.866025404 L19.5,0.866025404 L20.5,0.866025404 L15.3038476,3.8660254 L15.8038476,3 L15.8038476,9 L15.3038476,8.1339746 L20.5,11.1339746 L19.5,11.1339746 L24.6961524,8.1339746 L24.1961524,9 L24.1961524,3 L24.6961524,3.8660254 L19.5,0.866025404 Z M20,0 L25.1961524,3 L25.1961524,9 L20,12 L14.8038476,9 L14.8038476,3 L20,0 L20,0 Z" id="Shape"></path>
                        <path d="M33.5,0.866025404 L33.5,0.866025404 L34.5,0.866025404 L29.3038476,3.8660254 L29.8038476,3 L29.8038476,9 L29.3038476,8.1339746 L34.5,11.1339746 L33.5,11.1339746 L38.6961524,8.1339746 L38.1961524,9 L38.1961524,3 L38.6961524,3.8660254 L33.5,0.866025404 Z M34,0 L39.1961524,3 L39.1961524,9 L34,12 L28.8038476,9 L28.8038476,3 L34,0 L34,0 Z" id="Shape"></path>
                    </g>
                </g>
            </g>
        </g>
    </g>
</svg>