<?xml version="1.0" encoding="utf-8"?>
<!-- Generator: Adobe Illustrator 21.0.0, SVG Export Plug-In . SVG Version: 6.00 Build 0)  -->
<svg version="1.1" id="Layer_1" xmlns="http://www.w3.org/2000/svg" xmlns:xlink="http://www.w3.org/1999/xlink" x="0px" y="0px"
	 viewBox="0 0 601.4 140.2" style="enable-background:new 0 0 601.4 140.2;" xml:space="preserve">
<style type="text/css">
	.st0{fill:none;stroke:#26CAD3;stroke-width:8;stroke-miterlimit:10;}
</style>
<title>Asset 2</title>
<g id="Layer_2">
	<g id="Layer_1-2">
		<path class="st0" d="M0.9,106.7c0,0,40.7,8.9,43.8-10.7c1.8-11.4-3.5-29.9,22.2-38.5c6.5-2,13.6-1.3,19.5,2.1
			c7.5,4.8,10.5,13.4,10.4,23c-0.2,23,7.9,51.4,54.1,53.5c25.8,1.2,28.3-38.7,40.4-49.7c11.6-10.7,33.1-16.2,53.7-8.4
			c10.8,4.1,44.3,9.2,41.2-23.5c-0.2-2.3-1.1,0-0.6-21.2c0.5-19.8,12.3-33.6,37.8-28.1c17,3.6,25.3,4.2,74.8,26.9
			c16.3,7.5,31.6-36.7,61.9-8.6c16,14.9-15.3,48.1,18.6,60.4c45.4,16.5,24.5-32.6,23.9-33.9c-6.7-14.7,14.9-38.2,30.7-24.2
			c10.1,9,12.1,22.3,20.4,24.3c18.3,4.5,31.3-2.4,47.1,0.4"/>
	</g>
</g>
</svg>
