<?xml version="1.0" encoding="utf-8"?>
<!-- Generator: Adobe Illustrator 21.0.0, SVG Export Plug-In . SVG Version: 6.00 Build 0)  -->
<svg version="1.1" id="Layer_1" xmlns="http://www.w3.org/2000/svg" xmlns:xlink="http://www.w3.org/1999/xlink" x="0px" y="0px"
	 viewBox="0 0 601.4 168.9" style="enable-background:new 0 0 601.4 168.9;" xml:space="preserve">
<style type="text/css">
	.st0{fill:none;stroke:#26CAD3;stroke-width:4;stroke-miterlimit:10;}
</style>
<g id="Layer_2">
	<g id="Layer_1-2">
		<path class="st0" d="M-30,129.5c0,0,48.9,10.7,52.7-12.9c2.2-13.7-4.2-35.9,26.7-46.3c7.8-2.4,16.3-1.6,23.4,2.5
			c9,5.8,12.6,16.1,12.5,27.6c-0.2,27.6,9.5,61.8,65,64.3c31,1.4,34-46.5,48.6-59.7c13.9-12.9,39.8-19.5,64.6-10.1
			c13,4.9,53.3,11.1,49.5-28.2c-0.2-2.8-1.3,0-0.7-25.5c0.6-23.8,14.8-40.4,45.4-33.8c20.4,4.3,30.4,5,89.9,32.3
			c19.6,9,38-44.1,74.4-10.3c19.2,17.9-18.4,57.8,22.4,72.6c54.6,19.8,29.5-39.2,28.7-40.8c-8.1-17.7,17.9-45.9,36.9-29.1
			C622.1,43,624.5,59,634.5,61.4c22,5.4,37.6-2.9,56.6,0.5"/>
	</g>
</g>
</svg>
