<?xml version="1.0" encoding="utf-8"?>
<!-- Generator: Adobe Illustrator 21.0.0, SVG Export Plug-In . SVG Version: 6.00 Build 0)  -->
<svg version="1.1" id="Layer_1" xmlns="http://www.w3.org/2000/svg" xmlns:xlink="http://www.w3.org/1999/xlink" x="0px" y="0px"
	 viewBox="0 0 70.4 96" style="enable-background:new 0 0 70.4 96;" xml:space="preserve">
<style type="text/css">
	.st0{fill:#26CAD3;}
</style>
<title>Asset 3</title>
<g id="Layer_2">
	<g id="Layer_1-2">
		<path class="st0" d="M63.1,14.1c-5.1-7-12.6-11.8-21-13.4c-1.3-0.3-2.6-0.5-3.9-0.7h-5.9c-1.7,0.3-3.4,0.5-5,0.9
			C17,3.5,9.3,9.6,4.2,19.1c-3.2,6-4.6,12.9-4,19.7c0.6,7,3.1,13.7,7.2,19.3c7,10,14,20.1,20.9,30.2c1.5,2.1,2.9,4.3,4.5,6.4
			c0.5,0.5,1.1,1,1.8,1.4H36c1-0.5,1.9-1.3,2.4-2.3c8.3-12,16.6-24,24.9-36c3.4-4.6,5.6-10,6.6-15.7C71.7,32.2,69.2,22,63.1,14.1z
			 M26,19.9l9.2,5.4l4.6-2.7l-9.1-5.4l4.6-2.7L49,22.6l-13.8,8.1l-13.8-8.1L26,19.9z M53.5,32.5L35.2,43.4L24,36.7v7.2l11.3,6.7
			l18.3-10.8V47L35.2,57.8L16.9,47V25.3l18.3,10.8l18.3-10.8L53.5,32.5z"/>
	</g>
</g>
</svg>
