<svg xmlns="http://www.w3.org/2000/svg" xmlns:xlink="http://www.w3.org/1999/xlink" viewBox="0 0 125 125"><defs><style>.cls-1,.cls-3,.cls-4{fill:none;}.cls-2{clip-path:url(#clip-path);}.cls-3,.cls-4{stroke:#fff;stroke-miterlimit:10;}.cls-4{stroke-width:0.44px;}.cls-5{font-size:10px;fill:#fff;font-family:ProximaNovaA-Semibold, Proxima Nova Alt;font-weight:700;letter-spacing:0.1em;}</style><clipPath id="clip-path"><rect class="cls-1" x="41" y="26.12" width="49.51" height="42.88"/></clipPath></defs><title>Icons</title><g id="Layer_1" data-name="Layer 1"><g class="cls-2"><path class="cls-3" d="M89.75,50.19A10.85,10.85,0,0,1,85,51.37c-2.77.17-5.54.23-8.31.36-1.21.06-2.43.11-3.64.26a92.31,92.31,0,0,1-10.79.73q-6.72,0-13.44-.18c-2.18-.07-4.4.12-6.53-.74,0,.36,0,.66,0,1,0,2.32.17,4.64.09,7a24.68,24.68,0,0,0,.31,4.79,3.43,3.43,0,0,0,1.43,2.34,9.72,9.72,0,0,0,5.42,1.42c2.31.07,4.62-.24,6.93-.33,2.16-.09,4.32-.11,6.49-.17.8,0,1.59-.05,2.39-.12,1.51-.12,3-.34,4.53-.4,2.66-.11,5.31-.15,8-.2S83,67,85.58,66.91a13.2,13.2,0,0,0,1.81-.16,2.31,2.31,0,0,0,2-1.89,22.66,22.66,0,0,0,.28-2.78c.09-2.28.17-4.56.2-6.85,0-1.63-.07-3.26-.12-5m-47.81.63c1,1.18,2.41,1.23,3.76,1.26,6.27.12,12.54.26,18.8.22,3,0,6.06-.44,9.09-.65,2.65-.18,5.3-.3,8-.48q2.78-.19,5.56-.47a3.24,3.24,0,0,0,2.54-1.31c.06-.08.18-.12.28-.17s.08,0,.17,0c0,1.15.12,2.32.12,3.48q0,5.78-.1,11.56a3.22,3.22,0,0,1-2.7,2.91c-1,.1-2,.05-3.06.08l-7.4.22c-2.09.06-4.17.1-6.26.19-1.74.07-3.49.2-5.23.3-.83.05-1.66.14-2.49.17-2.27.08-4.54.11-6.81.21s-4.55.42-6.82.33a10.1,10.1,0,0,1-5.14-1.23,3.87,3.87,0,0,1-2-2.89C42.07,63,42,61.44,42,59.88c0-2.17,0-4.34,0-6.51,0-.81-.17-1.62-.26-2.43l.23-.12"/><path class="cls-4" d="M89.75,50.19A10.85,10.85,0,0,1,85,51.37c-2.77.17-5.54.23-8.31.36-1.21.06-2.43.11-3.64.26a92.31,92.31,0,0,1-10.79.73q-6.72,0-13.44-.18c-2.18-.07-4.4.12-6.53-.74,0,.36,0,.66,0,1,0,2.32.17,4.64.09,7a24.68,24.68,0,0,0,.31,4.79,3.43,3.43,0,0,0,1.43,2.34,9.72,9.72,0,0,0,5.42,1.42c2.31.07,4.62-.24,6.93-.33,2.16-.09,4.32-.11,6.49-.17.8,0,1.59-.05,2.39-.12,1.51-.12,3-.34,4.53-.4,2.66-.11,5.31-.15,8-.2S83,67,85.58,66.91a13.2,13.2,0,0,0,1.81-.16,2.31,2.31,0,0,0,2-1.89,22.66,22.66,0,0,0,.28-2.78c.09-2.28.17-4.56.2-6.85C89.88,53.6,89.8,52,89.75,50.19Zm-47.81.63c1,1.18,2.41,1.23,3.76,1.26,6.27.12,12.54.26,18.8.22,3,0,6.06-.44,9.09-.65,2.65-.18,5.3-.3,8-.48q2.78-.19,5.56-.47a3.24,3.24,0,0,0,2.54-1.31c.06-.08.18-.12.28-.17s.08,0,.17,0c0,1.15.12,2.32.12,3.48q0,5.78-.1,11.56a3.22,3.22,0,0,1-2.7,2.91c-1,.1-2,.05-3.06.08l-7.4.22c-2.09.06-4.17.1-6.26.19-1.74.07-3.49.2-5.23.3-.83.05-1.66.14-2.49.17-2.27.08-4.54.11-6.81.21s-4.55.42-6.82.33a10.1,10.1,0,0,1-5.14-1.23,3.87,3.87,0,0,1-2-2.89C42.07,63,42,61.44,42,59.88c0-2.17,0-4.34,0-6.51,0-.81-.17-1.62-.26-2.43Z"/><path class="cls-3" d="M79.37,49v0c.45,0,.91,0,1.36,0,2-.11,4.09-.19,6.13-.38a2.18,2.18,0,0,0,2.33-2.26,5.24,5.24,0,0,0,0-.78q0-1.68-.07-3.35c0-1.83-.06-3.66-.13-5.49a23.51,23.51,0,0,0-.3-2.9A2.21,2.21,0,0,0,86,31.91c-1.63.14-3.26.25-4.89.31-3.65.13-7.29.25-10.94.31-5.09.09-10.18.13-15.27.2-3.6.05-7.19.1-10.79.2a2.47,2.47,0,0,0-2.29,2.14,10.77,10.77,0,0,0-.08,1.79c.09,2.81.15,5.61.32,8.41a19.79,19.79,0,0,0,.61,3.29,1.1,1.1,0,0,0,.6.74c1.36.3,2.75.53,4.13.73a14.9,14.9,0,0,0,1.82.07c1.59,0,3.19.14,4.78.08,3.34-.13,6.67-.39,10-.54,2.81-.13,5.62-.17,8.42-.28,2.31-.1,4.63-.25,6.94-.38m8.22-17.48c.07.11.14.33.28.4a2.59,2.59,0,0,1,1.35,2.54c.13,2.76.21,5.53.32,8.29,0,1.23.08,2.47.16,3.7a2.32,2.32,0,0,1-1.79,2.41,16,16,0,0,1-3,.47c-3.45.13-6.91.15-10.37.28-2.54.09-5.08.29-7.62.41-4.74.21-9.49.4-14.23.6a45.86,45.86,0,0,1-7-.32c-.74-.08-1.47-.26-2.21-.36a1.28,1.28,0,0,1-1.19-1A30.83,30.83,0,0,1,41.6,45c-.17-2.65-.23-5.3-.29-8a9.76,9.76,0,0,1,.2-2.33,2.61,2.61,0,0,1,2.42-2q2.89-.18,5.78-.26,4-.1,8.06-.1c1.89,0,3.79.11,5.68.09,2.32,0,4.63-.14,6.95-.21,2.58-.07,5.16-.1,7.74-.21,3.11-.14,6.21-.34,9.45-.52"/><path class="cls-4" d="M79.37,49v0c.45,0,.91,0,1.36,0,2-.11,4.09-.19,6.13-.38a2.18,2.18,0,0,0,2.33-2.26,5.24,5.24,0,0,0,0-.78q0-1.68-.07-3.35c0-1.83-.06-3.66-.13-5.49a23.51,23.51,0,0,0-.3-2.9A2.21,2.21,0,0,0,86,31.91c-1.63.14-3.26.25-4.89.31-3.65.13-7.29.25-10.94.31-5.09.09-10.18.13-15.27.2-3.6.05-7.19.1-10.79.2a2.47,2.47,0,0,0-2.29,2.14,10.77,10.77,0,0,0-.08,1.79c.09,2.81.15,5.61.32,8.41a19.79,19.79,0,0,0,.61,3.29,1.1,1.1,0,0,0,.6.74c1.36.3,2.75.53,4.13.73a14.9,14.9,0,0,0,1.82.07c1.59,0,3.19.14,4.78.08,3.34-.13,6.67-.39,10-.54,2.81-.13,5.62-.17,8.42-.28C74.74,49.25,77.05,49.1,79.37,49Zm8.22-17.48c.07.11.14.33.28.4a2.59,2.59,0,0,1,1.35,2.54c.13,2.76.21,5.53.32,8.29,0,1.23.08,2.47.16,3.7a2.32,2.32,0,0,1-1.79,2.41,16,16,0,0,1-3,.47c-3.45.13-6.91.15-10.37.28-2.54.09-5.08.29-7.62.41-4.74.21-9.49.4-14.23.6a45.86,45.86,0,0,1-7-.32c-.74-.08-1.47-.26-2.21-.36a1.28,1.28,0,0,1-1.19-1A30.83,30.83,0,0,1,41.6,45c-.17-2.65-.23-5.3-.29-8a9.76,9.76,0,0,1,.2-2.33,2.61,2.61,0,0,1,2.42-2q2.89-.18,5.78-.26,4-.1,8.06-.1c1.89,0,3.79.11,5.68.09,2.32,0,4.63-.14,6.95-.21,2.58-.07,5.16-.1,7.74-.21C81.25,31.87,84.35,31.67,87.59,31.49Z"/><path class="cls-3" d="M57.9,31.34a2.56,2.56,0,0,1-.07-.49c0-.69.08-1.38.1-2.07A1.67,1.67,0,0,1,59.3,27a10.93,10.93,0,0,1,3.67-.6c2,0,4.08.1,6.12.11a6.27,6.27,0,0,1,2.67.22,1.81,1.81,0,0,1,1.32,1.58A7,7,0,0,1,73,31a1.69,1.69,0,0,1-.27-.51c-.08-.65-.13-1.3-.18-2-.08-.9-.32-1.27-1.24-1.45a14.42,14.42,0,0,0-2.47-.21c-2,0-4-.13-6-.05a22.84,22.84,0,0,0-3.45.57,1.27,1.27,0,0,0-1.05,1.37c0,.86-.08,1.71-.13,2.57l-.31,0"/><path class="cls-4" d="M57.9,31.34a2.56,2.56,0,0,1-.07-.49c0-.69.08-1.38.1-2.07A1.67,1.67,0,0,1,59.3,27a10.93,10.93,0,0,1,3.67-.6c2,0,4.08.1,6.12.11a6.27,6.27,0,0,1,2.67.22,1.81,1.81,0,0,1,1.32,1.58A7,7,0,0,1,73,31a1.69,1.69,0,0,1-.27-.51c-.08-.65-.13-1.3-.18-2-.08-.9-.32-1.27-1.24-1.45a14.42,14.42,0,0,0-2.47-.21c-2,0-4-.13-6-.05a22.84,22.84,0,0,0-3.45.57,1.27,1.27,0,0,0-1.05,1.37c0,.86-.08,1.71-.13,2.57Z"/></g><text class="cls-5" transform="translate(16.46 97.95)">MEETING ROOMS</text></g></svg>