<?xml version="1.0" encoding="utf-8"?>
<!-- Generator: Adobe Illustrator 18.1.1, SVG Export Plug-In . SVG Version: 6.00 Build 0)  -->
<!DOCTYPE svg PUBLIC "-//W3C//DTD SVG 1.1//EN" "http://www.w3.org/Graphics/SVG/1.1/DTD/svg11.dtd">
<svg version="1.1" id="Layer_1" xmlns:sketch="http://www.bohemiancoding.com/sketch/ns"
	 xmlns="http://www.w3.org/2000/svg" xmlns:xlink="http://www.w3.org/1999/xlink" x="0px" y="0px" width="52px" height="37px"
	 viewBox="-271 191.5 52 37" enable-background="new -271 191.5 52 37" xml:space="preserve">
<title>Shape</title>
<desc>Created with Sketch.</desc>
<title>Shape</title>
<desc>Created with Sketch.</desc>
<g>
	<path fill="#FFFFFF" d="M-252.3,191.5c-1.1,0-2.1,0.4-3.3,1.4l-13.6,11c-1.4,1.2-1.9,2.3-1.9,4.2v17.3c0,1.5,1.1,2.6,2.6,2.6h16.3
		c1.5,0,2.6-1.1,2.6-2.6v-31.1C-249.4,192.6-250.6,191.5-252.3,191.5z M-250.7,225.4c0,0.8-0.5,1.4-1.4,1.4h-16.3
		c-0.8,0-1.4-0.5-1.4-1.4v-17.3c0-1.6,0.3-2.3,1.4-3.3l13.6-11c0.9-0.8,1.7-1.1,2.5-1.1c1,0,1.6,0.5,1.6,1.6V225.4z"/>
	<path fill="#FFFFFF" d="M-221.8,191.5c-1.1,0-2.1,0.4-3.3,1.4l-13.6,11c-1.4,1.2-1.9,2.3-1.9,4.2v17.3c0,1.5,1.1,2.6,2.6,2.6h16.3
		c1.5,0,2.6-1.1,2.6-2.6v-31.1C-219,192.6-220.1,191.5-221.8,191.5z M-220.2,225.4c0,0.8-0.5,1.4-1.4,1.4h-16.3
		c-0.8,0-1.4-0.5-1.4-1.4v-17.3c0-1.6,0.3-2.3,1.4-3.3l13.6-11c0.9-0.8,1.7-1.1,2.5-1.1c1,0,1.6,0.5,1.6,1.6V225.4z"/>
</g>
</svg>
